# xmcd
#
# Track frame offsets: 
#        150
#        17862
#        65485
#        137910
#        158781
#        176067
#        184638
#        203080
#        210222
#        218213
#        221065
#        230840
#        257276
#        264778
#
# Disc length: 4073 seconds
#
# Revision: 0
# Processed by: cddbd v1.5.2PL0 Copyright (c) Steve Scherf et al.
# Submitted via: ExactAudioCopy v0.95b3
#
DISCID=c90fe70e
DTITLE=Jimi Hendrix  - Studio Sessions Vol.2 (Voodoo Chile Records  Bo
DTITLE=x-Set) - Disc 6
DYEAR=1900
DGENRE=
TTITLE0=Valleys Of Neptune
TTITLE1=Lord I Sing The Blues For Me And You
TTITLE2=Stepping Stone
TTITLE3=Power Of Soul
TTITLE4=Power Of Soul
TTITLE5=Power Of Soul
TTITLE6=Power Of Soul
TTITLE7=Power Of Soul
TTITLE8=Message To Love
TTITLE9=Message To Love
TTITLE10=Message To Love
TTITLE11=Room Full Of Mirrors
TTITLE12=Instrumental Jam
TTITLE13=Jungle
EXTD=
EXTT0=
EXTT1=
EXTT2=
EXTT3=
EXTT4=
EXTT5=
EXTT6=
EXTT7=
EXTT8=
EXTT9=
EXTT10=
EXTT11=
EXTT12=
EXTT13=
PLAYORDER=
